<?xml version="1.0" encoding="UTF-8"?>
<svg xmlns="http://www.w3.org/2000/svg" viewBox="0 0 920 480" width="920" height="480" style="background:#050a14">
<rect width="920" height="480" fill="#050a14"/>

<defs>
<marker id="ntA" markerWidth="7" markerHeight="5" refX="7" refY="2.5" orient="auto"><path d="M0,0 L7,2.5 L0,5" fill="none" stroke="#5a6578" stroke-width="1"/></marker>
<linearGradient id="ntE" x1="0" y1="0" x2="1" y2="0"><stop offset="0%" stop-color="#0d47a1"/><stop offset="100%" stop-color="#1e88e5"/></linearGradient>
<linearGradient id="ntM" x1="0" y1="0" x2="1" y2="0"><stop offset="0%" stop-color="#d84315"/><stop offset="100%" stop-color="#ff7043"/></linearGradient>
</defs>
<ellipse cx="220" cy="80" rx="170" ry="60" fill="none" stroke="#1e88e5" stroke-width="1" stroke-opacity="0.3" stroke-dasharray="4,3"/>
<text x="220" y="18" text-anchor="middle" fill="#1e88e5" font-size="10" font-weight="600" letter-spacing="1">EARTH</text>
<rect x="80" y="46" width="90" height="30" rx="4" fill="url(#ntE)" fill-opacity="0.7"/><text x="125" y="66" text-anchor="middle" fill="white" font-size="9" font-weight="600">Goldstone</text>
<rect x="185" y="38" width="70" height="30" rx="4" fill="url(#ntE)" fill-opacity="0.7"/><text x="220" y="58" text-anchor="middle" fill="white" font-size="9" font-weight="600">Madrid</text>
<rect x="270" y="46" width="90" height="30" rx="4" fill="url(#ntE)" fill-opacity="0.7"/><text x="315" y="66" text-anchor="middle" fill="white" font-size="9" font-weight="600">Canberra</text>
<text x="220" y="95" text-anchor="middle" fill="#5a6578" font-size="8">T1: Earth Ground (6 nodes)</text>

<ellipse cx="220" cy="150" rx="200" ry="30" fill="none" stroke="#42a5f5" stroke-width="1" stroke-opacity="0.3" stroke-dasharray="4,3"/>
<rect x="60" y="133" width="60" height="24" rx="4" fill="#42a5f5" fill-opacity="0.5"/><text x="90" y="150" text-anchor="middle" fill="white" font-size="8" font-weight="600">GEO-1</text>
<rect x="130" y="133" width="60" height="24" rx="4" fill="#42a5f5" fill-opacity="0.5"/><text x="160" y="150" text-anchor="middle" fill="white" font-size="8" font-weight="600">GEO-2</text>
<rect x="200" y="133" width="60" height="24" rx="4" fill="#42a5f5" fill-opacity="0.5"/><text x="230" y="150" text-anchor="middle" fill="white" font-size="8" font-weight="600">GEO-3</text>
<text x="330" y="145" text-anchor="middle" fill="#42a5f5" font-size="9" font-weight="600">+ 48 LEO laser mesh</text>
<text x="220" y="175" text-anchor="middle" fill="#5a6578" font-size="8">T2: Earth Orbital (51 nodes)</text>

<line x1="220" y1="100" x2="220" y2="120" stroke="#5a6578" stroke-width="1" marker-end="url(#ntA)"/>
<line x1="220" y1="180" x2="220" y2="200" stroke="#5a6578" stroke-width="1" marker-end="url(#ntA)"/>
<text x="240" y="195" fill="#7c5cf7" font-size="8">1550nm optical</text>

<rect x="140" y="205" width="160" height="50" rx="6" fill="rgba(124,92,247,0.1)" stroke="#7c5cf7" stroke-opacity="0.3"/>
<text x="220" y="222" text-anchor="middle" fill="#7c5cf7" font-size="10" font-weight="700">DEEP SPACE TRANSIT</text>
<text x="220" y="238" text-anchor="middle" fill="#8892a4" font-size="9">ES-L4 · ES-L5 Lagrange relays</text>
<text x="220" y="250" text-anchor="middle" fill="#5a6578" font-size="8">T3: 4 nodes</text>

<text x="460" y="305" text-anchor="middle" fill="#5a6578" font-size="9" font-style="italic">~225 million km average</text>
<line x1="310" y1="235" x2="580" y2="235" stroke="#5a6578" stroke-width="1" stroke-dasharray="3,3" marker-end="url(#ntA)"/>
<text x="445" y="230" text-anchor="middle" fill="#00d4ff" font-size="8">interplanetary optical link</text>
<text x="445" y="248" text-anchor="middle" fill="#5a6578" font-size="8">12.5 min one-way light time</text>

<ellipse cx="700" cy="80" rx="170" ry="60" fill="none" stroke="#ff7043" stroke-width="1" stroke-opacity="0.3" stroke-dasharray="4,3"/>
<text x="700" y="18" text-anchor="middle" fill="#ff7043" font-size="10" font-weight="600" letter-spacing="1">MARS</text>
<rect x="560" y="46" width="80" height="30" rx="4" fill="url(#ntM)" fill-opacity="0.7"/><text x="600" y="66" text-anchor="middle" fill="white" font-size="9" font-weight="600">MRS-Alpha</text>
<rect x="655" y="46" width="80" height="30" rx="4" fill="url(#ntM)" fill-opacity="0.7"/><text x="695" y="66" text-anchor="middle" fill="white" font-size="9" font-weight="600">MRS-Beta</text>
<rect x="750" y="46" width="80" height="30" rx="4" fill="url(#ntM)" fill-opacity="0.7"/><text x="790" y="66" text-anchor="middle" fill="white" font-size="9" font-weight="600">MRS-Polar</text>
<text x="700" y="95" text-anchor="middle" fill="#5a6578" font-size="8">T4: Mars Orbital (13 nodes)</text>

<ellipse cx="700" cy="150" rx="170" ry="30" fill="none" stroke="#d29922" stroke-width="1" stroke-opacity="0.3" stroke-dasharray="4,3"/>
<rect x="560" y="137" width="55" height="22" rx="4" fill="#d29922" fill-opacity="0.5"/><text x="587" y="152" text-anchor="middle" fill="white" font-size="8">Base-1</text>
<rect x="625" y="137" width="55" height="22" rx="4" fill="#d29922" fill-opacity="0.5"/><text x="652" y="152" text-anchor="middle" fill="white" font-size="8">Base-2</text>
<rect x="690" y="137" width="55" height="22" rx="4" fill="#d29922" fill-opacity="0.5"/><text x="717" y="152" text-anchor="middle" fill="white" font-size="8">Rover</text>
<text x="800" y="148" text-anchor="middle" fill="#d29922" font-size="9" font-weight="600">+ 164 more</text>
<text x="700" y="175" text-anchor="middle" fill="#5a6578" font-size="8">T5: Mars Surface (167 nodes)</text>

<line x1="700" y1="100" x2="700" y2="120" stroke="#5a6578" stroke-width="1" marker-end="url(#ntA)"/>

<text x="460" y="370" text-anchor="middle" fill="#00d4ff" font-size="11" font-weight="600">241 Nodes · 5 Tiers · 3 Redundant Paths · No Single Point of Failure</text>
<rect x="60" y="385" width="800" height="4" rx="2" fill="url(#ga1)" opacity="0.3"/>

</svg>