<?xml version="1.0" encoding="UTF-8"?>
<svg xmlns="http://www.w3.org/2000/svg" viewBox="0 0 920 440" width="920" height="440" style="background:#050a14">
<rect width="920" height="440" fill="#050a14"/>

<defs>
<marker id="dfA" markerWidth="7" markerHeight="5" refX="7" refY="2.5" orient="auto"><path d="M0,0 L7,2.5 L0,5" fill="none" stroke="#00d4ff" stroke-width="1.2"/></marker>
<marker id="dfG" markerWidth="7" markerHeight="5" refX="7" refY="2.5" orient="auto"><path d="M0,0 L7,2.5 L0,5" fill="none" stroke="#3fb950" stroke-width="1.2"/></marker>
</defs>
<text x="460" y="22" text-anchor="middle" fill="#8892a4" font-size="11" font-weight="600" letter-spacing="2">APPLICATION LAYER</text>
<rect x="20" y="32" width="200" height="50" rx="6" fill="rgba(0,212,255,0.08)" stroke="#00d4ff" stroke-opacity="0.3"/>
<text x="120" y="52" text-anchor="middle" fill="#00d4ff" font-size="10" font-weight="700">SOURCE NODE</text><text x="120" y="68" text-anchor="middle" fill="#8892a4" font-size="8">Science data (500 MB)</text>
<line x1="220" y1="57" x2="260" y2="57" stroke="#00d4ff" stroke-width="1.5" marker-end="url(#dfA)"/>
<rect x="260" y="32" width="200" height="50" rx="6" fill="rgba(124,92,247,0.08)" stroke="#7c5cf7" stroke-opacity="0.3"/>
<text x="360" y="52" text-anchor="middle" fill="#7c5cf7" font-size="10" font-weight="700">BUNDLE PROTOCOL</text><text x="360" y="68" text-anchor="middle" fill="#8892a4" font-size="8">BPv7 wraps data + metadata</text>
<line x1="460" y1="57" x2="500" y2="57" stroke="#7c5cf7" stroke-width="1.5" marker-end="url(#dfA)"/>
<rect x="500" y="32" width="200" height="50" rx="6" fill="rgba(63,185,80,0.08)" stroke="#3fb950" stroke-opacity="0.3"/>
<text x="600" y="52" text-anchor="middle" fill="#3fb950" font-size="10" font-weight="700">RL ROUTING</text><text x="600" y="68" text-anchor="middle" fill="#8892a4" font-size="8">Agent selects next hop</text>
<line x1="700" y1="57" x2="740" y2="57" stroke="#3fb950" stroke-width="1.5" marker-end="url(#dfG)"/>
<rect x="740" y="32" width="160" height="50" rx="6" fill="rgba(200,76,255,0.08)" stroke="#c84cff" stroke-opacity="0.3"/>
<text x="820" y="52" text-anchor="middle" fill="#c84cff" font-size="10" font-weight="700">QKD ENCRYPT</text><text x="820" y="68" text-anchor="middle" fill="#8892a4" font-size="8">BB84 key (256-bit)</text>

<text x="460" y="114" text-anchor="middle" fill="#8892a4" font-size="11" font-weight="600" letter-spacing="2">CONVERGENCE LAYER</text>
<rect x="100" y="124" width="250" height="45" rx="6" fill="rgba(255,107,53,0.08)" stroke="#ff6b35" stroke-opacity="0.3"/>
<text x="225" y="142" text-anchor="middle" fill="#ff6b35" font-size="10" font-weight="700">LTP SEGMENTATION</text><text x="225" y="158" text-anchor="middle" fill="#8892a4" font-size="8">RS encoding · retransmission</text>
<line x1="350" y1="147" x2="400" y2="147" stroke="#5a6578" stroke-width="1" marker-end="url(#dfA)"/>
<rect x="400" y="124" width="200" height="45" rx="6" fill="rgba(0,212,255,0.08)" stroke="#00d4ff" stroke-opacity="0.3"/>
<text x="500" y="142" text-anchor="middle" fill="#00d4ff" font-size="10" font-weight="700">STORE &amp; WAIT</text><text x="500" y="158" text-anchor="middle" fill="#8892a4" font-size="8">Buffer until link available</text>
<line x1="600" y1="147" x2="650" y2="147" stroke="#5a6578" stroke-width="1" marker-end="url(#dfG)"/>
<rect x="650" y="124" width="220" height="45" rx="6" fill="rgba(63,185,80,0.08)" stroke="#3fb950" stroke-opacity="0.3"/>
<text x="760" y="142" text-anchor="middle" fill="#3fb950" font-size="10" font-weight="700">FORWARD &amp; CUSTODY</text><text x="760" y="158" text-anchor="middle" fill="#8892a4" font-size="8">Transmit + custody transfer</text>

<text x="460" y="204" text-anchor="middle" fill="#8892a4" font-size="11" font-weight="600" letter-spacing="2">PHYSICAL LAYER</text>
<rect x="20" y="214" width="215" height="45" rx="6" fill="rgba(210,153,34,0.08)" stroke="#d29922" stroke-opacity="0.3"/>
<text x="127" y="234" text-anchor="middle" fill="#d29922" font-size="10" font-weight="700">MARS UHF</text><text x="127" y="250" text-anchor="middle" fill="#8892a4" font-size="8">400 MHz · 2 Mbps</text>
<line x1="235" y1="237" x2="275" y2="237" stroke="#5a6578" stroke-width="1" marker-end="url(#dfA)"/>
<rect x="275" y="214" width="215" height="45" rx="6" fill="rgba(255,107,53,0.08)" stroke="#ff6b35" stroke-opacity="0.3"/>
<text x="382" y="234" text-anchor="middle" fill="#ff6b35" font-size="10" font-weight="700">DEEP SPACE 1550nm</text><text x="382" y="250" text-anchor="middle" fill="#8892a4" font-size="8">10-200 Mbps · 225M km</text>
<line x1="490" y1="237" x2="530" y2="237" stroke="#5a6578" stroke-width="1" marker-end="url(#dfA)"/>
<rect x="530" y="214" width="215" height="45" rx="6" fill="rgba(0,212,255,0.08)" stroke="#00d4ff" stroke-opacity="0.3"/>
<text x="637" y="234" text-anchor="middle" fill="#00d4ff" font-size="10" font-weight="700">EARTH ISL</text><text x="637" y="250" text-anchor="middle" fill="#8892a4" font-size="8">Laser mesh · 10 Gbps</text>
<line x1="745" y1="237" x2="785" y2="237" stroke="#5a6578" stroke-width="1" marker-end="url(#dfG)"/>
<rect x="785" y="214" width="115" height="45" rx="6" fill="rgba(63,185,80,0.08)" stroke="#3fb950" stroke-opacity="0.3"/>
<text x="842" y="234" text-anchor="middle" fill="#3fb950" font-size="10" font-weight="700">DSN</text><text x="842" y="250" text-anchor="middle" fill="#8892a4" font-size="8">Ka-band</text>

<text x="460" y="294" text-anchor="middle" fill="#8892a4" font-size="11" font-weight="600" letter-spacing="2">DELIVERY</text>
<rect x="100" y="304" width="200" height="40" rx="6" fill="rgba(63,185,80,0.08)" stroke="#3fb950" stroke-opacity="0.3"/>
<text x="200" y="328" text-anchor="middle" fill="#3fb950" font-size="10" font-weight="700">LTP REASSEMBLY</text>
<line x1="300" y1="324" x2="360" y2="324" stroke="#5a6578" stroke-width="1" marker-end="url(#dfA)"/>
<rect x="360" y="304" width="200" height="40" rx="6" fill="rgba(200,76,255,0.08)" stroke="#c84cff" stroke-opacity="0.3"/>
<text x="460" y="328" text-anchor="middle" fill="#c84cff" font-size="10" font-weight="700">QKD DECRYPT</text>
<line x1="560" y1="324" x2="620" y2="324" stroke="#5a6578" stroke-width="1" marker-end="url(#dfG)"/>
<rect x="620" y="304" width="200" height="40" rx="6" fill="rgba(0,212,255,0.08)" stroke="#00d4ff" stroke-opacity="0.3"/>
<text x="720" y="328" text-anchor="middle" fill="#00d4ff" font-size="10" font-weight="700">APPLICATION ✓</text>

<rect x="20" y="370" width="880" height="35" rx="6" fill="rgba(0,212,255,0.04)" stroke="#00d4ff" stroke-opacity="0.15"/>
<text x="460" y="392" text-anchor="middle" fill="#8892a4" font-size="9">Each hop: <tspan fill="#00d4ff" font-weight="600">BPv7</tspan> → <tspan fill="#7c5cf7" font-weight="600">LTP</tspan> → <tspan fill="#ff6b35" font-weight="600">Physical</tspan> → <tspan fill="#3fb950" font-weight="600">Store/Forward</tspan> → <tspan fill="#c84cff" font-weight="600">Custody</tspan></text>

</svg>