<?xml version="1.0" encoding="UTF-8"?>
<svg xmlns="http://www.w3.org/2000/svg" viewBox="0 0 920 440" width="920" height="440" style="background:#050a14">
<rect width="920" height="440" fill="#050a14"/>

<defs>
<marker id="jmA" markerWidth="7" markerHeight="5" refX="7" refY="2.5" orient="auto"><path d="M0,0 L7,2.5 L0,5" fill="none" stroke="#ff6b35" stroke-width="1.2"/></marker>
<linearGradient id="jmG" x1="0" y1="0" x2="1" y2="0"><stop offset="0%" stop-color="#d84315" stop-opacity="0.3"/><stop offset="50%" stop-color="#7c5cf7" stop-opacity="0.15"/><stop offset="100%" stop-color="#1e88e5" stop-opacity="0.3"/></linearGradient>
</defs>
<circle cx="80" cy="80" r="45" fill="#d84315" fill-opacity="0.2" stroke="#ff6b35" stroke-width="1.5"/>
<text x="80" y="76" text-anchor="middle" fill="#ff6b35" font-size="12" font-weight="700">MARS</text>
<text x="80" y="92" text-anchor="middle" fill="#8892a4" font-size="8">Surface</text>
<circle cx="840" cy="80" r="55" fill="#1e88e5" fill-opacity="0.2" stroke="#00d4ff" stroke-width="1.5"/>
<text x="840" y="76" text-anchor="middle" fill="#00d4ff" font-size="12" font-weight="700">EARTH</text>
<text x="840" y="92" text-anchor="middle" fill="#8892a4" font-size="8">Ground</text>
<line x1="125" y1="80" x2="795" y2="80" stroke="#5a6578" stroke-width="0.5" stroke-dasharray="4,4"/>
<text x="460" y="50" text-anchor="middle" fill="#5a6578" font-size="9" font-style="italic">~225 million km · 12.5 min one-way light time</text>

<rect x="150" y="68" width="72" height="34" rx="6" fill="rgba(255,112,67,0.15)" stroke="#ff7043" stroke-opacity="0.4"/>
<text x="186" y="84" text-anchor="middle" fill="#ff7043" font-size="8" font-weight="600">Areostat</text>
<text x="186" y="96" text-anchor="middle" fill="#5a6578" font-size="7">17,032 km</text>
<line x1="105" y1="80" x2="150" y2="80" stroke="#ff6b35" stroke-width="1.5" marker-end="url(#jmA)"/>

<rect x="270" y="68" width="72" height="34" rx="6" fill="rgba(255,112,67,0.15)" stroke="#ff7043" stroke-opacity="0.4"/>
<text x="306" y="84" text-anchor="middle" fill="#ff7043" font-size="8" font-weight="600">Polar Orbiter</text>
<text x="306" y="96" text-anchor="middle" fill="#5a6578" font-size="7">Optical ISL</text>
<line x1="222" y1="80" x2="270" y2="80" stroke="#ff6b35" stroke-width="1.5" marker-end="url(#jmA)"/>

<rect x="400" y="58" width="100" height="44" rx="6" fill="rgba(124,92,247,0.15)" stroke="#7c5cf7" stroke-opacity="0.4"/>
<text x="450" y="76" text-anchor="middle" fill="#7c5cf7" font-size="8" font-weight="600">ES-L4 Relay</text>
<text x="450" y="90" text-anchor="middle" fill="#5a6578" font-size="7">Lagrange Point</text>
<text x="450" y="100" text-anchor="middle" fill="#5a6578" font-size="7">150M km</text>
<line x1="342" y1="80" x2="400" y2="80" stroke="#7c5cf7" stroke-width="1.5" marker-end="url(#jmA)"/>

<rect x="550" y="68" width="80" height="34" rx="6" fill="rgba(66,165,245,0.15)" stroke="#42a5f5" stroke-opacity="0.4"/>
<text x="590" y="84" text-anchor="middle" fill="#42a5f5" font-size="8" font-weight="600">LEO Mesh</text>
<text x="590" y="96" text-anchor="middle" fill="#5a6578" font-size="7">48 satellites</text>
<line x1="500" y1="80" x2="550" y2="80" stroke="#42a5f5" stroke-width="1.5" marker-end="url(#jmA)"/>

<rect x="680" y="68" width="80" height="34" rx="6" fill="rgba(0,212,255,0.15)" stroke="#00d4ff" stroke-opacity="0.4"/>
<text x="720" y="84" text-anchor="middle" fill="#00d4ff" font-size="8" font-weight="600">DSN</text>
<text x="720" y="96" text-anchor="middle" fill="#5a6578" font-size="7">Goldstone</text>
<line x1="630" y1="80" x2="680" y2="80" stroke="#00d4ff" stroke-width="1.5" marker-end="url(#jmA)"/>
<line x1="760" y1="80" x2="795" y2="80" stroke="#00d4ff" stroke-width="1.5" marker-end="url(#jmA)"/>

<text x="20" y="200" fill="#8892a4" font-size="11" font-weight="600" letter-spacing="1.5">HOP DETAIL</text>
<rect x="20" y="215" width="125" height="80" rx="6" fill="rgba(255,112,67,0.08)" stroke="#ff7043" stroke-opacity="0.25"/>
<text x="82" y="232" text-anchor="middle" fill="#ff7043" font-size="9" font-weight="700">HOP 1</text><text x="82" y="246" text-anchor="middle" fill="#8892a4" font-size="8">Rover→UHF</text><text x="82" y="260" text-anchor="middle" fill="#5a6578" font-size="7">UHF 400 MHz</text><text x="82" y="274" text-anchor="middle" fill="#5a6578" font-size="7">~400 km · 2 Mbps</text>
<line x1="145" y1="255" x2="160" y2="255" stroke="#5a6578" stroke-width="1" marker-end="url(#jmA)"/>
<rect x="160" y="215" width="125" height="80" rx="6" fill="rgba(255,112,67,0.08)" stroke="#ff7043" stroke-opacity="0.25"/>
<text x="222" y="232" text-anchor="middle" fill="#ff7043" font-size="9" font-weight="700">HOP 2</text><text x="222" y="246" text-anchor="middle" fill="#8892a4" font-size="8">UHF→Areostat</text><text x="222" y="260" text-anchor="middle" fill="#5a6578" font-size="7">17,032 km alt</text><text x="222" y="274" text-anchor="middle" fill="#5a6578" font-size="7">256 kbps</text>
<line x1="285" y1="255" x2="300" y2="255" stroke="#5a6578" stroke-width="1" marker-end="url(#jmA)"/>
<rect x="300" y="215" width="125" height="80" rx="6" fill="rgba(255,112,67,0.08)" stroke="#ff7043" stroke-opacity="0.25"/>
<text x="362" y="232" text-anchor="middle" fill="#ff7043" font-size="9" font-weight="700">HOP 3</text><text x="362" y="246" text-anchor="middle" fill="#8892a4" font-size="8">Areostat→Polar</text><text x="362" y="260" text-anchor="middle" fill="#5a6578" font-size="7">Optical ISL</text><text x="362" y="274" text-anchor="middle" fill="#5a6578" font-size="7">10 Gbps</text>
<line x1="425" y1="255" x2="440" y2="255" stroke="#5a6578" stroke-width="1" marker-end="url(#jmA)"/>
<rect x="440" y="215" width="125" height="80" rx="6" fill="rgba(124,92,247,0.08)" stroke="#7c5cf7" stroke-opacity="0.25"/>
<text x="502" y="232" text-anchor="middle" fill="#7c5cf7" font-size="9" font-weight="700">HOP 4-5</text><text x="502" y="246" text-anchor="middle" fill="#8892a4" font-size="8">Deep Space</text><text x="502" y="260" text-anchor="middle" fill="#5a6578" font-size="7">1550nm laser</text><text x="502" y="274" text-anchor="middle" fill="#5a6578" font-size="7">225M km · 10-20 Mbps</text>
<line x1="565" y1="255" x2="580" y2="255" stroke="#5a6578" stroke-width="1" marker-end="url(#jmA)"/>
<rect x="580" y="215" width="125" height="80" rx="6" fill="rgba(66,165,245,0.08)" stroke="#42a5f5" stroke-opacity="0.25"/>
<text x="642" y="232" text-anchor="middle" fill="#42a5f5" font-size="9" font-weight="700">HOP 6</text><text x="642" y="246" text-anchor="middle" fill="#8892a4" font-size="8">LEO Mesh</text><text x="642" y="260" text-anchor="middle" fill="#5a6578" font-size="7">Optical ISL</text><text x="642" y="274" text-anchor="middle" fill="#5a6578" font-size="7">10 Gbps</text>
<line x1="705" y1="255" x2="720" y2="255" stroke="#5a6578" stroke-width="1" marker-end="url(#jmA)"/>
<rect x="720" y="215" width="125" height="80" rx="6" fill="rgba(63,185,80,0.08)" stroke="#3fb950" stroke-opacity="0.25"/>
<text x="782" y="232" text-anchor="middle" fill="#3fb950" font-size="9" font-weight="700">HOP 7</text><text x="782" y="246" text-anchor="middle" fill="#8892a4" font-size="8">DSN→JPL</text><text x="782" y="260" text-anchor="middle" fill="#5a6578" font-size="7">Ka-band</text><text x="782" y="274" text-anchor="middle" fill="#3fb950" font-size="8" font-weight="600">DELIVERED ✓</text>

<rect x="20" y="320" width="280" height="45" rx="6" fill="rgba(0,212,255,0.04)" stroke="#00d4ff" stroke-opacity="0.15"/>
<text x="160" y="340" text-anchor="middle" fill="#00d4ff" font-size="10" font-weight="600">Total Transit: ~13 min</text>
<text x="160" y="356" text-anchor="middle" fill="#8892a4" font-size="8">vs 12.5 min light-time!</text>
<rect x="320" y="320" width="280" height="45" rx="6" fill="rgba(63,185,80,0.04)" stroke="#3fb950" stroke-opacity="0.15"/>
<text x="460" y="340" text-anchor="middle" fill="#3fb950" font-size="10" font-weight="600">DTN Overhead: &lt;5%</text>
<text x="460" y="356" text-anchor="middle" fill="#8892a4" font-size="8">Store-and-forward adds minimal latency</text>
<rect x="620" y="320" width="280" height="45" rx="6" fill="rgba(124,92,247,0.04)" stroke="#7c5cf7" stroke-opacity="0.15"/>
<text x="760" y="340" text-anchor="middle" fill="#7c5cf7" font-size="10" font-weight="600">QKD Secured</text>
<text x="760" y="356" text-anchor="middle" fill="#8892a4" font-size="8">End-to-end quantum encryption</text>

<rect x="20" y="385" width="880" height="30" rx="6" fill="rgba(248,81,73,0.04)" stroke="#f85149" stroke-opacity="0.15"/>
<text x="460" y="405" text-anchor="middle" fill="#f85149" font-size="10" font-weight="600">⚡ If any link drops mid-transfer, the bundle is stored safely — zero data loss</text>

</svg>