<svg xmlns="http://www.w3.org/2000/svg" width="1200" height="630" viewBox="0 0 1200 630">
  <defs>
    <radialGradient id="nebula1" cx="30%" cy="40%" r="60%">
      <stop offset="0%" stop-color="#7c5cf7" stop-opacity="0.15"/>
      <stop offset="100%" stop-color="transparent"/>
    </radialGradient>
    <radialGradient id="nebula2" cx="70%" cy="60%" r="50%">
      <stop offset="0%" stop-color="#c84cff" stop-opacity="0.1"/>
      <stop offset="100%" stop-color="transparent"/>
    </radialGradient>
    <radialGradient id="nebula3" cx="50%" cy="30%" r="40%">
      <stop offset="0%" stop-color="#00d4ff" stop-opacity="0.08"/>
      <stop offset="100%" stop-color="transparent"/>
    </radialGradient>
    <linearGradient id="titleGrad" x1="0%" y1="0%" x2="100%" y2="100%">
      <stop offset="0%" stop-color="#00e5ff"/>
      <stop offset="40%" stop-color="#7c5cf7"/>
      <stop offset="70%" stop-color="#c84cff"/>
      <stop offset="100%" stop-color="#ff6b35"/>
    </linearGradient>
    <linearGradient id="lineGrad" x1="0%" y1="0%" x2="100%" y2="0%">
      <stop offset="0%" stop-color="transparent"/>
      <stop offset="50%" stop-color="#7c5cf7" stop-opacity="0.4"/>
      <stop offset="100%" stop-color="transparent"/>
    </linearGradient>
  </defs>
  <rect width="1200" height="630" fill="#050a14"/>
  <rect width="1200" height="630" fill="url(#nebula1)"/>
  <rect width="1200" height="630" fill="url(#nebula2)"/>
  <rect width="1200" height="630" fill="url(#nebula3)"/>
  <circle cx="150" cy="100" r="1.5" fill="#fff" opacity="0.6"/>
  <circle cx="300" cy="200" r="1" fill="#fff" opacity="0.4"/>
  <circle cx="500" cy="80" r="1.2" fill="#fff" opacity="0.5"/>
  <circle cx="700" cy="150" r="0.8" fill="#fff" opacity="0.3"/>
  <circle cx="900" cy="90" r="1.5" fill="#fff" opacity="0.5"/>
  <circle cx="1050" cy="180" r="1" fill="#fff" opacity="0.4"/>
  <circle cx="200" cy="400" r="1" fill="#fff" opacity="0.3"/>
  <circle cx="400" cy="500" r="1.3" fill="#fff" opacity="0.4"/>
  <circle cx="800" cy="450" r="0.8" fill="#fff" opacity="0.3"/>
  <circle cx="1000" cy="380" r="1.2" fill="#fff" opacity="0.5"/>
  <circle cx="600" cy="520" r="1" fill="#fff" opacity="0.3"/>
  <line x1="100" y1="315" x2="1100" y2="315" stroke="url(#lineGrad)" stroke-width="1"/>
  <text x="600" y="220" font-family="Inter, system-ui, sans-serif" font-size="96" font-weight="800" fill="url(#titleGrad)" text-anchor="middle" letter-spacing="12">AETHERIX</text>
  <text x="600" y="280" font-family="Inter, system-ui, sans-serif" font-size="18" fill="#8892aa" text-anchor="middle" letter-spacing="4">INTERPLANETARY DELAY-TOLERANT NETWORKING PLATFORM</text>
  <rect x="380" y="350" width="110" height="28" rx="14" fill="rgba(124,92,247,0.15)" stroke="rgba(124,92,247,0.3)" stroke-width="1"/>
  <text x="435" y="369" font-family="monospace" font-size="12" fill="#7c5cf7" text-anchor="middle" font-weight="600">BPv7 · RFC 9171</text>
  <rect x="510" y="350" width="120" height="28" rx="14" fill="rgba(200,76,255,0.12)" stroke="rgba(200,76,255,0.3)" stroke-width="1"/>
  <text x="570" y="369" font-family="monospace" font-size="12" fill="#c84cff" text-anchor="middle" font-weight="600">QKD · BB84/E91</text>
  <rect x="650" y="350" width="100" height="28" rx="14" fill="rgba(0,212,255,0.1)" stroke="rgba(0,212,255,0.3)" stroke-width="1"/>
  <text x="700" y="369" font-family="monospace" font-size="12" fill="#00d4ff" text-anchor="middle" font-weight="600">RL Routing</text>
  <circle cx="420" cy="480" r="30" fill="none" stroke="#ff6b35" stroke-width="1" opacity="0.3"/>
  <circle cx="420" cy="480" r="22" fill="none" stroke="#ff6b35" stroke-width="0.5" opacity="0.2"/>
  <circle cx="420" cy="480" r="8" fill="#ff6b35" opacity="0.6"/>
  <text x="420" y="525" font-family="sans-serif" font-size="11" fill="#8892aa" text-anchor="middle">Mars</text>
  <circle cx="600" cy="450" r="40" fill="none" stroke="#7c5cf7" stroke-width="1" opacity="0.3"/>
  <circle cx="600" cy="450" r="30" fill="none" stroke="#7c5cf7" stroke-width="0.5" opacity="0.2"/>
  <circle cx="600" cy="450" r="8" fill="#7c5cf7" opacity="0.5"/>
  <text x="600" y="500" font-family="sans-serif" font-size="11" fill="#8892aa" text-anchor="middle">Relay</text>
  <circle cx="780" cy="470" r="35" fill="none" stroke="#00d4ff" stroke-width="1" opacity="0.3"/>
  <circle cx="780" cy="470" r="25" fill="none" stroke="#00d4ff" stroke-width="0.5" opacity="0.2"/>
  <circle cx="780" cy="470" r="8" fill="#00d4ff" opacity="0.5"/>
  <text x="780" y="518" font-family="sans-serif" font-size="11" fill="#8892aa" text-anchor="middle">Earth</text>
  <line x1="445" y1="474" x2="580" y2="454" stroke="#c84cff" stroke-width="0.8" opacity="0.3" stroke-dasharray="4,4"/>
  <line x1="620" y1="454" x2="760" y2="466" stroke="#c84cff" stroke-width="0.8" opacity="0.3" stroke-dasharray="4,4"/>
  <text x="600" y="590" font-family="Inter, system-ui, sans-serif" font-size="13" fill="#4a5270" text-anchor="middle" letter-spacing="1">Earth–Mars Communication · 5-Tier Network · 232 Nodes · 1550nm Optical · Quantum Security</text>
</svg>
